<?xml version="1.0" encoding="UTF-8"?>
<!-- Generated by Pixelmator Pro 3.5.8 -->
<svg width="4500" height="1407" viewBox="0 0 4500 1407" xmlns="http://www.w3.org/2000/svg">
    <g id="Group">
        <g id="g1">
            <g id="g2">
                <path id="Path" fill="#000000" stroke="none" d="M 1746.456909 928.492737 L 1746.456909 427.667603 L 1921.627319 427.667603 C 2068.684082 427.667603 2169.245117 513.121582 2169.245117 669.967468 L 2169.245117 687.274536 C 2169.245117 843.038757 2068.684082 929.574463 1921.627319 929.574463 L 1746.456909 929.574463 Z M 1828.635742 860.345886 L 1916.220825 860.345886 C 2018.944336 860.345886 2084.903564 807.342773 2084.903564 687.274536 L 2084.903564 669.967468 C 2084.903564 550.980896 2020.025635 496.896118 1915.139648 496.896118 L 1828.635742 496.896118 L 1828.635742 860.345886 Z"/>
                <path id="path1" fill="#000000" stroke="none" d="M 2209.25293 752.176331 L 2209.25293 741.359375 C 2209.25293 631.026428 2277.375 556.389404 2386.585938 556.389404 C 2505.529053 556.389404 2562.837891 638.598267 2556.350098 762.993286 L 2283.862549 762.993286 C 2287.106445 836.548584 2323.87085 875.489624 2386.585938 875.489624 C 2436.325928 875.489624 2465.520996 852.774048 2477.415283 818.159729 L 2554.1875 818.159729 C 2536.886719 891.715088 2476.333984 937.14624 2386.585938 937.14624 C 2275.212402 938.227905 2209.25293 862.509216 2209.25293 752.176331 Z M 2478.496582 708.908508 C 2473.090088 652.660339 2442.813721 618.046021 2386.585938 618.046021 C 2328.196045 618.046021 2294.675537 649.415222 2286.025391 708.908508 L 2478.496582 708.908508 Z"/>
                <path id="path2" fill="#000000" stroke="none" d="M 2612.577637 928.492737 L 2612.577637 398.461853 L 2690.431152 398.461853 L 2690.431152 929.574463 L 2612.577637 929.574463 Z"/>
                <path id="path3" fill="#000000" stroke="none" d="M 2747.73999 752.176331 L 2747.73999 741.359375 C 2747.73999 631.026428 2815.862061 556.389404 2925.073242 556.389404 C 3044.016113 556.389404 3101.324951 638.598267 3094.837158 762.993286 L 2822.349854 762.993286 C 2825.59375 836.548584 2862.357666 875.489624 2925.073242 875.489624 C 2974.812744 875.489624 3004.008057 852.774048 3015.902344 818.159729 L 3092.674805 818.159729 C 3075.373779 891.715088 3014.821045 937.14624 2925.073242 937.14624 C 2813.699219 938.227905 2747.73999 862.509216 2747.73999 752.176331 Z M 3016.983643 708.908508 C 3011.577148 652.660339 2981.300781 618.046021 2925.073242 618.046021 C 2866.682861 618.046021 2833.162842 649.415222 2824.512207 708.908508 L 3016.983643 708.908508 Z"/>
                <path id="path4" fill="#000000" stroke="none" d="M 3142.414307 953.371704 L 3226.755615 953.371704 C 3232.162354 984.740845 3258.113281 1000.966309 3311.096924 1000.966309 C 3371.649658 1000.966309 3407.33252 971.760559 3407.33252 914.430664 L 3407.33252 859.264221 C 3387.869385 893.878418 3347.861084 922.002502 3290.552246 922.002502 C 3194.31665 922.002502 3132.682617 846.283813 3132.682617 745.686157 L 3132.682617 732.70575 C 3132.682617 632.108093 3192.154053 557.471069 3288.389648 557.471069 C 3350.023682 557.471069 3392.194336 591.003601 3410.57666 625.61792 L 3412.739014 566.124695 L 3485.186279 566.124695 L 3485.186279 906.858826 C 3485.186279 1000.966309 3422.470947 1059.37793 3307.853271 1059.37793 C 3206.211182 1058.296265 3151.064697 1013.946655 3142.414307 953.371704 Z M 3409.495361 745.686157 L 3409.495361 732.70575 C 3409.495361 661.313843 3373.8125 619.127686 3308.93457 619.127686 C 3246.218994 619.127686 3211.617676 662.395508 3211.617676 732.70575 L 3211.617676 745.686157 C 3211.617676 815.996399 3247.300293 859.264221 3308.93457 859.264221 C 3373.8125 859.264221 3409.495361 814.914673 3409.495361 745.686157 Z"/>
                <path id="path5" fill="#000000" stroke="none" d="M 3539.251221 831.140137 C 3539.251221 772.728516 3574.933838 734.869202 3636.568115 726.215576 L 3779.299805 704.581665 L 3779.299805 678.620972 C 3779.299805 638.598267 3752.267334 616.964355 3705.77124 616.964355 C 3660.356934 616.964355 3633.324219 636.434875 3626.836426 668.885742 L 3552.226807 668.885742 C 3559.795898 598.575562 3618.185791 556.389404 3706.852539 556.389404 C 3800.925781 556.389404 3853.909424 606.1474 3853.909424 681.866089 L 3853.909424 928.492737 L 3782.543457 928.492737 L 3779.299805 872.244507 C 3756.592285 913.348999 3712.259033 938.227905 3660.356934 938.227905 C 3585.746826 938.227905 3539.251221 892.796753 3539.251221 831.140137 Z M 3779.299805 795.444153 L 3779.299805 761.91156 L 3662.519287 778.137024 C 3628.998779 783.545471 3613.86084 798.68927 3613.86084 826.813354 C 3613.86084 857.100769 3637.649414 876.571289 3677.657227 876.571289 C 3732.803711 876.571289 3779.299805 843.038757 3779.299805 795.444153 Z"/>
                <path id="path6" fill="#000000" stroke="none" d="M 3949.063477 831.140137 L 3949.063477 624.536194 L 3878.779053 624.536194 L 3878.779053 566.124695 L 3949.063477 566.124695 L 3949.063477 451.464844 L 4026.917236 451.464844 L 4026.917236 565.042908 L 4125.31543 565.042908 L 4125.31543 623.454529 L 4026.917236 623.454529 L 4026.917236 821.404846 C 4026.917236 857.100769 4039.892578 873.326172 4083.144531 873.326172 C 4098.283203 873.326172 4116.665039 870.081177 4127.478027 865.754333 L 4127.478027 927.411011 C 4111.258301 931.737793 4086.388672 936.064575 4068.006348 936.064575 C 3987.990479 938.227905 3949.063477 901.450317 3949.063477 831.140137 Z"/>
                <path id="path7" fill="#000000" stroke="none" d="M 4152.348145 752.176331 L 4152.348145 741.359375 C 4152.348145 631.026428 4220.469727 556.389404 4329.681152 556.389404 C 4448.624023 556.389404 4505.932617 638.598267 4499.444824 762.993286 L 4226.95752 762.993286 C 4230.201172 836.548584 4266.965332 875.489624 4329.681152 875.489624 C 4379.420898 875.489624 4408.615723 852.774048 4420.510254 818.159729 L 4497.282227 818.159729 C 4479.981445 891.715088 4419.428711 937.14624 4329.681152 937.14624 C 4218.307129 938.227905 4152.348145 862.509216 4152.348145 752.176331 Z M 4421.591309 708.908508 C 4416.185059 652.660339 4385.908203 618.046021 4329.681152 618.046021 C 4271.291016 618.046021 4237.770508 649.415222 4229.120117 708.908508 L 4421.591309 708.908508 Z"/>
            </g>
        </g>
        <g id="g3">
            <path id="path8" fill="#293f4d" stroke="none" d="M 679.214539 1031.253906 L 626.230835 1031.253906 L 267.239532 1310.331299 L 267.239532 1031.253906 L 220.743622 1031.253906 L 220.743622 1406.602173 L 703.003113 1031.253906 L 679.214539 1031.253906 Z"/>
            <path id="path9" fill="#125b7f" stroke="none" d="M 633.799988 984.740845 L 267.239532 984.740845 L 267.239532 734.869202 L 220.743622 703.5 L 220.743622 703.5 L 220.743622 1031.253906 L 703.003113 1031.253906 L 703.003113 1031.253906 Z"/>
            <path id="path10" fill="#1baed0" stroke="none" d="M 703.003113 1031.253906 L 703.003113 1031.253906 L 703.003113 1031.253906 L 703.003113 1031.253906 L 703.003113 1031.253906 Z"/>
            <path id="path11" fill="#1baed0" stroke="none" d="M 703.003113 975.005615 L 304.003693 703.5 L 220.743622 703.5 L 703.003113 1031.253906 Z"/>
            <path id="path12" fill="#f97900" stroke="none" d="M 772.206238 984.740845 L 1137.685425 984.740845 L 1137.685425 734.869202 L 1185.262695 703.5 L 1185.262695 703.5 L 1185.262695 1031.253906 L 703.003113 1031.253906 L 703.003113 1031.253906 Z"/>
            <path id="path13" fill="#e34200" stroke="none" d="M 726.791748 1031.253906 L 778.694031 1031.253906 L 1137.685425 1310.331299 L 1137.685425 1031.253906 L 1185.262695 1031.253906 L 1185.262695 1406.602173 L 703.003113 1031.253906 L 726.791748 1031.253906 Z"/>
            <path id="path14" fill="#1baed0" stroke="none" d="M 703.003113 1031.253906 L 703.003113 1031.253906 L 703.003113 1031.253906 L 703.003113 1031.253906 L 703.003113 1031.253906 Z"/>
            <path id="path15" fill="#ffba13" stroke="none" d="M 703.003113 975.005615 L 1102.002563 703.5 L 1185.262695 703.5 L 703.003113 1031.253906 Z"/>
            <path id="path16" fill="#448895" stroke="none" d="M 46.654461 703.5 L 46.654461 422.259094 L 220.743622 422.259094 L 220.743622 375.746216 L 0.158588 375.746216 L 0.158588 703.5 L 0.158588 703.5 L 0.158588 1031.253906 L 220.743622 1031.253906 L 220.743622 984.740845 L 46.654461 984.740845 L 46.654461 703.5 Z"/>
            <path id="path17" fill="#8cc5d6" stroke="none" d="M 679.214539 375.746216 L 626.230835 375.746216 L 267.239532 96.668701 L 267.239532 375.746216 L 220.743622 375.746216 L 220.743622 0.397827 L 703.003113 375.746216 L 679.214539 375.746216 Z"/>
            <path id="path18" fill="#c1e4ea" stroke="none" d="M 633.799988 422.259094 L 267.239532 422.259094 L 267.239532 672.130798 L 220.743622 703.5 L 220.743622 703.5 L 220.743622 375.746216 L 703.003113 375.746216 L 703.003113 375.746216 Z"/>
            <path id="path19" fill="#1baed0" stroke="none" d="M 703.003113 375.746216 L 703.003113 375.746216 L 703.003113 375.746216 L 703.003113 375.746216 L 703.003113 375.746216 Z"/>
            <path id="path20" fill="#1baed0" stroke="none" d="M 703.003113 431.994385 L 304.003693 703.5 L 220.743622 703.5 L 703.003113 375.746216 Z"/>
            <path id="path21" fill="#e1a451" stroke="none" d="M 1185.262695 375.746216 L 1185.262695 422.259094 L 1359.351685 422.259094 L 1359.351685 703.5 L 1359.351685 703.5 L 1359.351685 984.740845 L 1185.262695 984.740845 L 1185.262695 1031.253906 L 1405.847656 1031.253906 L 1405.847656 703.5 L 1405.847656 703.5 L 1405.847656 375.746216 Z"/>
            <path id="path22" fill="#efd5ce" stroke="none" d="M 726.791748 375.746216 L 778.694031 375.746216 L 1137.685425 96.668701 L 1137.685425 375.746216 L 1185.262695 375.746216 L 1185.262695 0.397827 L 703.003113 375.746216 L 726.791748 375.746216 Z"/>
            <path id="path23" fill="#ffd089" stroke="none" d="M 703.003113 431.994385 L 679.214539 448.219849 L 679.214539 958.780151 L 703.003113 975.005615 L 726.791748 958.780151 L 726.791748 448.219849 Z"/>
            <path id="path24" fill="#ffd089" stroke="none" d="M 772.206238 422.259094 L 1137.685425 422.259094 L 1137.685425 672.130798 L 1185.262695 703.5 L 1185.262695 703.5 L 1185.262695 375.746216 L 703.003113 375.746216 L 703.003113 375.746216 Z"/>
            <path id="path25" fill="#1baed0" stroke="none" d="M 703.003113 375.746216 L 703.003113 375.746216 L 703.003113 375.746216 L 703.003113 375.746216 L 703.003113 375.746216 Z"/>
            <path id="path26" fill="#ffba13" stroke="none" d="M 703.003113 431.994385 L 1102.002563 703.5 L 1185.262695 703.5 L 703.003113 375.746216 Z"/>
        </g>
    </g>
</svg>
